<svg width="256" height="256" fill="none" xmlns="http://www.w3.org/2000/svg"><path fill="#fff" d="M0 0h256v256H0z"/><path d="M110.443 67.037v99.243c0 9.033.082 17.945.245 26.734h59.448l15.625-32.349 5.493-.854-2.686 43.701-.732.854c-21.078-.244-40.568-.366-58.472-.366h-30.64c-9.846 0-19.938.122-30.273.366l-.488-5.249 15.015-4.516c2.034-.57 3.133-1.831 3.295-3.785.082-3.255.123-6.876.123-10.864.08-4.069.122-8.545.122-13.428V67.525c0-4.15-.041-7.894-.123-11.23 0-3.337-.04-6.348-.122-9.033-.08-2.116-1.057-3.5-2.93-4.15L68.208 38.35l-.244-5.25c10.498.326 20.59.489 30.273.489 9.766 0 19.857-.163 30.274-.488l.488 5.249-15.137 4.516c-1.953.489-3.011 1.75-3.173 3.784-.082 2.849-.163 7-.245 12.451v7.935Z" fill="#000"/></svg>