<svg width="192" height="192" fill="none" xmlns="http://www.w3.org/2000/svg"><path fill="#fff" d="M0 0h192v192H0z"/><path d="M83.377 50.908v75.425c0 6.865.062 13.638.186 20.317h45.18l11.875-24.585 4.175-.649-2.041 33.213-.557.649A3867.904 3867.904 0 0 0 97.757 155H74.47c-7.484 0-15.153.093-23.008.278l-.371-3.989 11.41-3.433c1.547-.432 2.382-1.391 2.506-2.876.062-2.473.093-5.226.093-8.256.061-3.093.092-6.495.092-10.205v-75.24c0-3.154-.03-6-.092-8.535 0-2.536-.031-4.824-.093-6.865-.062-1.608-.804-2.66-2.227-3.154l-11.504-3.619-.185-3.989c7.978.248 15.648.371 23.008.371 7.422 0 15.09-.123 23.007-.37l.371 3.988-11.503 3.433c-1.485.371-2.289 1.33-2.412 2.876a750.903 750.903 0 0 0-.186 9.463v6.03Z" fill="#000"/></svg>