<svg width="512" height="512" fill="none" xmlns="http://www.w3.org/2000/svg"><path fill="#fff" d="M0 0h512v512H0z"/><path d="M234.887 133.074v198.487c0 18.066.162 35.888.488 53.466h118.896l31.25-64.697 10.987-1.709-5.371 87.402-1.465 1.709c-42.155-.488-81.136-.732-116.943-.732h-61.28c-19.694 0-39.876.244-60.547.732l-.976-10.498 30.029-9.033c4.069-1.139 6.266-3.662 6.592-7.568.163-6.511.244-13.753.244-21.729.163-8.138.244-17.09.244-26.855V134.051c0-8.301-.081-15.788-.244-22.461 0-6.673-.081-12.696-.244-18.067-.163-4.231-2.116-6.998-5.859-8.3L150.414 75.7l-.488-10.498c20.996.651 41.178.977 60.547.977 19.531 0 39.713-.326 60.547-.977l.976 10.498-30.273 9.033c-3.907.977-6.022 3.5-6.348 7.569-.163 5.696-.326 13.997-.488 24.902v15.869Z" fill="#000"/></svg>