<svg width="90" height="21" fill="none" xmlns="http://www.w3.org/2000/svg"><path fill-rule="evenodd" clip-rule="evenodd" d="m8.44 17.447-.029-.059L0 12l2.996-2.214L5.473 0 8.47 2.214l9.996-.641-1.152 3.553L21 14.534h-3.716l-.029.03L9.564 21 8.44 17.447Z" fill="#000"/><path fill-rule="evenodd" clip-rule="evenodd" d="M8.441 17.355v.058l5.82-2.913 1.094.03h1.93l-.115-.874-.807-5.622.95-2.883h-.028l-.087-.03-6.28-1.106L8.47 2.209v.03l-.749 1.397-2.276 4.37-2.333 1.718-.115.087 4.522 4.69.922 2.854Z" fill="#fff"/><path d="M32.736 13.508h-1.288c.084.924.42 1.624 1.036 2.058a3.474 3.474 0 0 0 2.114.686c1.246 0 2.17-.364 2.744-1.064.56-.7.854-1.526.854-2.45 0-.882-.322-1.624-.938-2.198-.63-.588-1.386-.868-2.282-.868-.476 0-.91.07-1.274.224-.196.084-.42.224-.644.392l.42-2.73h4.158V6.382h-5.082l-.742 5.264 1.064.056a2.08 2.08 0 0 1 .77-.672c.308-.168.672-.252 1.092-.252.588 0 1.092.182 1.512.56.406.378.616.896.616 1.582 0 .574-.182 1.078-.532 1.554-.35.462-.882.686-1.61.686-.392 0-.728-.056-1.022-.196-.56-.266-.896-.756-.966-1.456Zm11.984 1.148v1.302c.098.084.252.154.448.21.196.056.392.084.602.084.392 0 .728-.042 1.008-.154.28-.098.532-.266.756-.49.224-.224.42-.504.616-.868.182-.35.392-.784.616-1.274l3.15-7.518h-1.512l-2.52 6.664-3.318-6.664h-1.568l4.116 8.05a2.146 2.146 0 0 1-.154.378c-.07.126-.168.224-.266.322a1.286 1.286 0 0 1-.378.224 1.571 1.571 0 0 1-.532.084c-.098 0-.196-.014-.294-.028l-.308-.084c-.098-.042-.182-.07-.266-.112a.79.79 0 0 1-.196-.126Zm14.238-7.532V5.948H53.05V16h1.344V7.124h4.564Zm3.955 0h3.584V16h1.344V5.948h-6.244c0 .476-.014.966-.014 1.47l-.014 1.526a52.596 52.596 0 0 1-.056 1.512c-.014.49-.056.952-.098 1.4-.042.434-.098.84-.168 1.218s-.168.7-.266.98c-.112.266-.252.49-.392.63a.754.754 0 0 1-.546.238c-.154 0-.252-.014-.322-.028-.084-.014-.154-.042-.196-.056v1.246c.098.028.21.056.294.07.084.028.196.042.322.042a1.87 1.87 0 0 0 1.12-.35c.294-.224.546-.546.756-.966.196-.406.364-.896.476-1.47.126-.56.21-1.176.28-1.848.056-.672.084-1.386.112-2.142.014-.742.028-1.512.028-2.296Zm16.318 3.85c0-.784-.112-1.484-.336-2.142-.224-.644-.532-1.204-.952-1.666a4.193 4.193 0 0 0-1.54-1.078c-.602-.266-1.302-.392-2.072-.392s-1.456.126-2.072.392a4.313 4.313 0 0 0-1.54 1.078 4.986 4.986 0 0 0-.952 1.666 6.546 6.546 0 0 0-.336 2.142c0 .434.042.868.126 1.288.098.434.224.84.406 1.232.168.392.392.756.672 1.092.266.336.588.63.938.868a4.55 4.55 0 0 0 1.232.588c.462.14.98.21 1.526.21.56 0 1.064-.07 1.526-.21a4.36 4.36 0 0 0 1.232-.588c.364-.238.686-.532.952-.868.266-.336.476-.7.658-1.092a5.27 5.27 0 0 0 .392-1.232c.098-.42.14-.854.14-1.288Zm-1.344 0c0 .616-.07 1.176-.224 1.666a3.55 3.55 0 0 1-.644 1.302c-.294.364-.672.63-1.12.84-.448.196-.966.294-1.568.294-.602 0-1.12-.098-1.568-.294-.434-.21-.812-.476-1.106-.84a3.826 3.826 0 0 1-.672-1.302c-.14-.49-.21-1.05-.21-1.666 0-.588.084-1.148.238-1.652.154-.504.392-.938.7-1.302a2.984 2.984 0 0 1 1.106-.84c.448-.21.952-.308 1.512-.308s1.064.098 1.512.308a3.15 3.15 0 0 1 1.12.84c.294.364.532.798.686 1.302.154.504.238 1.064.238 1.652Zm6.528-5.026h-3.598V16h4.242c.434 0 .826-.042 1.162-.126.336-.084.63-.196.896-.35.252-.14.476-.308.658-.504.182-.196.336-.406.462-.63.112-.21.196-.434.252-.686a3.65 3.65 0 0 0 .07-.672c0-.378-.056-.714-.168-.994a3.125 3.125 0 0 0-.434-.7 2.66 2.66 0 0 0-.588-.476c-.21-.112-.42-.21-.63-.28.252-.112.462-.238.63-.42.182-.154.308-.336.42-.532.098-.196.168-.392.224-.588a2.78 2.78 0 0 0 .07-.56c0-.336-.056-.63-.14-.896a2.312 2.312 0 0 0-.952-1.176 3.378 3.378 0 0 0-.7-.294 5.258 5.258 0 0 0-.84-.14 21.409 21.409 0 0 0-1.036-.028Zm.252 4.284h-2.506V7.124h2.506c.378 0 .7.042.966.112.266.056.49.154.644.294.168.126.28.28.364.462.07.182.098.392.098.63 0 .224-.028.434-.07.63a1.145 1.145 0 0 1-.294.504c-.154.14-.364.266-.63.35-.28.084-.63.126-1.078.126Zm.196 4.592h-2.702v-3.5h2.702c.434 0 .798.042 1.106.126.294.084.532.196.728.35.182.154.308.35.392.56.084.21.126.448.126.714 0 .266-.042.504-.126.714-.084.21-.21.406-.392.546-.196.168-.434.28-.728.364a4.22 4.22 0 0 1-1.106.126Z" fill="#000"/></svg>