<svg width="256" height="256" viewBox="0 0 256 256" fill="none" xmlns="http://www.w3.org/2000/svg">
<rect width="256" height="256" fill="white"/>
<path d="M110.443 67.0371V166.28C110.443 175.313 110.525 184.225 110.688 193.014H170.136L185.761 160.665L191.254 159.811L188.568 203.512L187.836 204.366C166.758 204.122 147.268 204 129.364 204H98.7246C88.8776 204 78.7865 204.122 68.4512 204.366L67.9629 199.117L82.9775 194.601C85.012 194.031 86.1107 192.77 86.2734 190.816C86.3548 187.561 86.3955 183.94 86.3955 179.952C86.4769 175.883 86.5176 171.407 86.5176 166.524V67.5254C86.5176 63.375 86.4769 59.6315 86.3955 56.2949C86.3955 52.9583 86.3548 49.9473 86.2734 47.2617C86.1921 45.1458 85.2155 43.7624 83.3438 43.1113L68.207 38.3506L67.9629 33.1016C78.4609 33.4271 88.5521 33.5898 98.2363 33.5898C108.002 33.5898 118.093 33.4271 128.51 33.1016L128.998 38.3506L113.861 42.8672C111.908 43.3555 110.85 44.6169 110.688 46.6514C110.606 49.4997 110.525 53.6501 110.443 59.1025C110.443 64.555 110.443 67.1999 110.443 67.0371Z" fill="black"/>
</svg>
