<svg width="192" height="192" viewBox="0 0 192 192" fill="none" xmlns="http://www.w3.org/2000/svg">
<rect width="192" height="192" fill="white"/>
<path d="M83.377 50.9082V126.333C83.377 133.198 83.4388 139.971 83.5625 146.65H128.743L140.618 122.065L144.793 121.416L142.752 154.629L142.195 155.278C126.176 155.093 111.364 155 97.7568 155H74.4707C66.987 155 59.3177 155.093 51.4629 155.278L51.0918 151.289L62.5029 147.856C64.0492 147.424 64.8841 146.465 65.0078 144.98C65.0697 142.507 65.1006 139.754 65.1006 136.724C65.1624 133.631 65.1934 130.229 65.1934 126.519V51.2793C65.1934 48.125 65.1624 45.2799 65.1006 42.7441C65.1006 40.2083 65.0697 37.9199 65.0078 35.8789C64.946 34.2708 64.2038 33.2194 62.7812 32.7246L51.2773 29.1064L51.0918 25.1172C59.0703 25.3646 66.7396 25.4883 74.0996 25.4883C81.5215 25.4883 89.1908 25.3646 97.1074 25.1172L97.4785 29.1064L85.9746 32.5391C84.4902 32.9102 83.6862 33.8688 83.5625 35.415C83.5007 37.5798 83.4388 40.734 83.377 44.8779C83.377 49.0218 83.377 51.0319 83.377 50.9082Z" fill="black"/>
</svg>
