<svg width="512" height="512" viewBox="0 0 512 512" fill="none" xmlns="http://www.w3.org/2000/svg">
<rect width="512" height="512" fill="white"/>
<path d="M234.887 133.074V331.561C234.887 349.627 235.049 367.449 235.375 385.027H354.271L385.521 320.33L396.508 318.621L391.137 406.023L389.672 407.732C347.517 407.244 308.536 407 272.729 407H211.449C191.755 407 171.573 407.244 150.902 407.732L149.926 397.234L179.955 388.201C184.024 387.062 186.221 384.539 186.547 380.633C186.71 374.122 186.791 366.88 186.791 358.904C186.954 350.766 187.035 341.814 187.035 332.049V134.051C187.035 125.75 186.954 118.263 186.791 111.59C186.791 104.917 186.71 98.8945 186.547 93.5234C186.384 89.2917 184.431 86.5247 180.688 85.2227L150.414 75.7012L149.926 65.2031C170.922 65.8542 191.104 66.1797 210.473 66.1797C230.004 66.1797 250.186 65.8542 271.02 65.2031L271.996 75.7012L241.723 84.7344C237.816 85.7109 235.701 88.2337 235.375 92.3027C235.212 97.9993 235.049 106.3 234.887 117.205C234.887 128.11 234.887 133.4 234.887 133.074Z" fill="black"/>
</svg>
