<svg width="152" height="152" viewBox="0 0 152 152" fill="none" xmlns="http://www.w3.org/2000/svg">
<rect width="152" height="152" fill="white"/>
<path d="M66.0215 39.8652V107.351C66.0215 113.493 66.0768 119.553 66.1875 125.529H106.612L117.237 103.532L120.973 102.951L119.146 132.668L118.648 133.249C104.316 133.083 91.0622 133 78.8877 133H58.0527C51.3568 133 44.4948 133.083 37.4668 133.249L37.1348 129.68L47.3447 126.608C48.7282 126.221 49.4753 125.363 49.5859 124.035C49.6413 121.822 49.6689 119.359 49.6689 116.647C49.7243 113.881 49.752 110.837 49.752 107.517V40.1973C49.752 37.375 49.7243 34.8294 49.6689 32.5605C49.6689 30.2917 49.6413 28.2441 49.5859 26.418C49.5306 24.9792 48.8665 24.0384 47.5938 23.5957L37.3008 20.3584L37.1348 16.7891C44.2734 17.0104 51.1354 17.1211 57.7207 17.1211C64.3613 17.1211 71.2233 17.0104 78.3066 16.7891L78.6387 20.3584L68.3457 23.4297C67.0176 23.7617 66.2982 24.6195 66.1875 26.0029C66.1322 27.9398 66.0768 30.762 66.0215 34.4697C66.0215 38.1774 66.0215 39.9759 66.0215 39.8652Z" fill="black"/>
</svg>
